<svg height="1086" width="720" xmlns="http://www.w3.org/2000/svg">
<rect height="1086" fill="#555" width="720"></rect>
<text fill="#7f7" font-family="Courier New" font-size="12" xml:space="preserve">
<tspan x="10" y="26">4 megabytes installed</tspan>
<tspan x="10" y="42"></tspan>
<tspan x="10" y="58">node_modules</tspan>
<tspan x="10" y="74">└─┬ image-to-ascii@3.0.7 </tspan>
<tspan x="10" y="90">  ├─┬ asciify-pixel-matrix@1.0.8 </tspan>
<tspan x="10" y="106">  │ └─┬ asciify-pixel@1.2.8 </tspan>
<tspan x="10" y="122">  │   ├─┬ couleurs@6.0.8 </tspan>
<tspan x="10" y="138">  │   │ ├─┬ ansy@1.0.9 </tspan>
<tspan x="10" y="154">  │   │ │ ├── ansi-styles@3.0.0 </tspan>
<tspan x="10" y="170">  │   │ │ ├── custom-return@1.0.6 </tspan>
<tspan x="10" y="186">  │   │ │ └─┬ supports-color@3.2.3 </tspan>
<tspan x="10" y="202">  │   │ │   └── has-flag@1.0.0 </tspan>
<tspan x="10" y="218">  │   │ └─┬ color-convert@1.9.0 </tspan>
<tspan x="10" y="234">  │   │   └── color-name@1.1.2 </tspan>
<tspan x="10" y="250">  │   ├── pixel-bg@1.0.7 </tspan>
<tspan x="10" y="266">  │   └── pixel-white-bg@1.0.6 </tspan>
<tspan x="10" y="282">  ├─┬ compute-size@1.0.7 </tspan>
<tspan x="10" y="298">  │ ├─┬ fixed-or-percent@1.0.7 </tspan>
<tspan x="10" y="314">  │ │ ├─┬ is-percent@1.0.8 </tspan>
<tspan x="10" y="330">  │ │ │ └── last-char@1.3.7 </tspan>
<tspan x="10" y="346">  │ │ └── percent-value@1.0.6 </tspan>
<tspan x="10" y="362">  │ └─┬ map-o@2.0.7 </tspan>
<tspan x="10" y="378">  │   └── iterate-object@1.3.2 </tspan>
<tspan x="10" y="394">  ├─┬ image-parser@1.2.4 </tspan>
<tspan x="10" y="410">  │ ├── cb-buffer@2.1.3 </tspan>
<tspan x="10" y="426">  │ ├── err@1.1.1 </tspan>
<tspan x="10" y="442">  │ ├─┬ gm-tools@1.0.7 </tspan>
<tspan x="10" y="458">  │ │ ├─┬ gm@1.23.0 </tspan>
<tspan x="10" y="474">  │ │ │ ├── array-parallel@0.1.3 </tspan>
<tspan x="10" y="490">  │ │ │ ├── array-series@0.1.5 </tspan>
<tspan x="10" y="506">  │ │ │ ├─┬ cross-spawn@4.0.2 </tspan>
<tspan x="10" y="522">  │ │ │ │ ├─┬ lru-cache@4.0.2 </tspan>
<tspan x="10" y="538">  │ │ │ │ │ ├── pseudomap@1.0.2 </tspan>
<tspan x="10" y="554">  │ │ │ │ │ └── yallist@2.1.2 </tspan>
<tspan x="10" y="570">  │ │ │ │ └─┬ which@1.2.14 </tspan>
<tspan x="10" y="586">  │ │ │ │   └── isexe@2.0.0 </tspan>
<tspan x="10" y="602">  │ │ │ └─┬ debug@2.2.0 </tspan>
<tspan x="10" y="618">  │ │ │   └── ms@0.7.1 </tspan>
<tspan x="10" y="634">  │ │ ├── pngjs@2.3.1 </tspan>
<tspan x="10" y="650">  │ │ └─┬ same-time@2.3.3 </tspan>
<tspan x="10" y="666">  │ │   └── deffy@2.0.0 </tspan>
<tspan x="10" y="682">  │ ├─┬ lwipify@2.0.8 </tspan>
<tspan x="10" y="698">  │ │ ├─┬ lwip2@1.0.10 </tspan>
<tspan x="10" y="714">  │ │ │ └─┬ gm-installed@1.0.6 </tspan>
<tspan x="10" y="730">  │ │ │   └── prgm-installed@1.0.7 </tspan>
<tspan x="10" y="746">  │ │ ├─┬ tinyreq@3.2.2 </tspan>
<tspan x="10" y="762">  │ │ │ └─┬ follow-redirects@0.2.0 </tspan>
<tspan x="10" y="778">  │ │ │   └── stream-consume@0.1.0 </tspan>
<tspan x="10" y="794">  │ │ └─┬ url-remote@1.1.5 </tspan>
<tspan x="10" y="810">  │ │   └─┬ url-local@1.1.5 </tspan>
<tspan x="10" y="826">  │ │     └─┬ parse-url@1.3.7 </tspan>
<tspan x="10" y="842">  │ │       ├── is-ssh@1.3.0 </tspan>
<tspan x="10" y="858">  │ │       └── protocols@1.4.5 </tspan>
<tspan x="10" y="874">  │ ├── noop6@1.0.6 </tspan>
<tspan x="10" y="890">  │ └── pixel-class@1.0.6 </tspan>
<tspan x="10" y="906">  ├─┬ imgpx@1.0.9 </tspan>
<tspan x="10" y="922">  │ └── lwip-pixels@1.1.6 </tspan>
<tspan x="10" y="938">  ├─┬ one-by-one@3.2.5 </tspan>
<tspan x="10" y="954">  │ ├── obj-def@1.0.5 </tspan>
<tspan x="10" y="970">  │ └── sliced@1.0.1 </tspan>
<tspan x="10" y="986">  ├─┬ terminal-char-width@1.0.6 </tspan>
<tspan x="10" y="1002">  │ └── is-windows@0.1.1 </tspan>
<tspan x="10" y="1018">  └─┬ ul@5.2.11 </tspan>
<tspan x="10" y="1034">    ├── deffy@2.2.2 </tspan>
<tspan x="10" y="1050">    └─┬ typpy@2.3.8 </tspan>
<tspan x="10" y="1066">      └── function.name@1.0.8</tspan>
</text>
</svg>
